<?xml version="1.0" standalone="no"?>
<!DOCTYPE svg PUBLIC "-//W3C//DTD SVG 20010904//EN"
 "http://www.w3.org/TR/2001/REC-SVG-20010904/DTD/svg10.dtd">
<svg version="1.0" xmlns="http://www.w3.org/2000/svg"
 width="1600.000000pt" height="1600.000000pt" viewBox="0 0 1600.000000 1600.000000"
 preserveAspectRatio="xMidYMid meet">
<metadata>
Created by potrace 1.11, written by Peter Selinger 2001-2013
</metadata>
<g transform="translate(0.000000,1600.000000) scale(0.100000,-0.100000)"
fill="#000000" stroke="none">
<path d="M5200 12786 c0 -228 -3 -417 -7 -419 -5 -3 -28 -8 -53 -11 -148 -20
-370 -85 -559 -163 -107 -44 -286 -136 -388 -201 -43 -27 -154 -93 -248 -147
-93 -54 -187 -108 -207 -121 -21 -13 -40 -24 -43 -24 -9 0 -133 -101 -180
-146 -23 -22 -56 -59 -75 -84 -19 -25 -37 -47 -41 -50 -16 -14 -92 -154 -118
-222 -69 -172 -79 -250 -79 -605 0 -321 7 -385 59 -538 27 -78 83 -200 99
-215 3 -3 17 -23 32 -45 101 -154 238 -268 439 -363 68 -33 171 -82 229 -110
58 -27 148 -70 200 -95 52 -24 149 -70 215 -102 66 -31 161 -76 210 -100 169
-80 290 -137 390 -185 269 -128 346 -165 415 -198 41 -19 140 -67 220 -105 80
-39 147 -71 150 -72 3 0 38 -17 79 -36 l75 -34 -95 -12 c-52 -6 -126 -14 -165
-18 -39 -3 -82 -8 -95 -10 -36 -6 -132 -17 -258 -30 -24 -2 -60 -7 -80 -9 -20
-3 -65 -8 -101 -11 -36 -3 -76 -8 -90 -10 -22 -4 -78 -10 -171 -20 -14 -1 -52
-5 -85 -9 -60 -8 -86 -11 -184 -21 -30 -3 -66 -8 -80 -10 -14 -2 -56 -6 -95
-10 -38 -3 -81 -8 -95 -10 -14 -3 -50 -7 -80 -10 -30 -3 -73 -8 -95 -11 -22
-2 -62 -7 -90 -10 -27 -3 -61 -7 -75 -9 -14 -2 -59 -7 -100 -10 -41 -4 -82 -8
-90 -10 -8 -2 -44 -6 -80 -10 -36 -4 -78 -9 -95 -11 -60 -7 -124 -14 -350 -39
-126 -14 -264 -30 -305 -35 -41 -5 -100 -12 -130 -15 -30 -3 -71 -7 -90 -9
-19 -2 -62 -7 -95 -10 -33 -4 -71 -8 -85 -11 -14 -2 -52 -7 -85 -10 -33 -3
-71 -8 -85 -10 -14 -3 -34 -7 -45 -9 -391 -75 -721 -377 -815 -743 -10 -42
-12 -43 -53 -44 -90 -2 -224 -15 -249 -24 -7 -2 -29 -6 -48 -9 -39 -6 -204
-52 -235 -65 -11 -5 -63 -29 -115 -52 -52 -23 -118 -58 -147 -76 -29 -18 -56
-33 -62 -33 -5 0 -11 -3 -13 -7 -1 -5 -37 -33 -78 -64 -311 -231 -546 -619
-605 -999 -4 -25 -10 -54 -12 -65 -14 -55 -8 -353 8 -449 67 -400 241 -702
580 -1011 31 -27 95 -86 144 -130 105 -95 84 -76 225 -205 63 -58 120 -109
126 -115 6 -5 53 -49 105 -96 52 -47 110 -100 130 -117 20 -17 54 -49 76 -69
33 -32 107 -100 242 -222 14 -13 69 -63 121 -110 367 -336 409 -373 525 -460
165 -123 363 -229 560 -297 107 -38 275 -82 340 -90 22 -3 47 -7 55 -9 62 -17
655 -20 4720 -20 4067 0 4690 3 4742 20 7 2 32 6 54 9 67 8 241 54 344 91 289
102 514 240 785 485 28 25 69 61 90 80 69 61 229 203 265 236 69 61 247 220
319 284 41 36 79 70 85 76 16 15 111 99 190 169 38 33 78 69 90 80 12 11 57
52 101 90 43 39 83 75 89 80 6 6 72 64 146 129 244 215 373 354 478 516 54 82
142 258 142 283 0 9 4 18 9 21 7 4 36 94 46 141 1 6 7 28 13 50 10 40 16 73
31 190 8 57 6 313 -2 365 -5 32 -18 110 -22 130 -27 142 -122 384 -189 483
-14 21 -26 41 -26 44 0 17 -148 200 -221 272 -72 73 -255 221 -272 221 -3 0
-25 13 -49 29 -51 34 -151 82 -245 117 -80 31 -153 54 -153 48 0 -2 -11 1 -26
6 -14 6 -39 12 -57 15 -18 3 -57 10 -87 15 -30 5 -97 12 -149 16 -93 5 -94 6
-130 44 -62 66 -287 302 -343 361 -98 102 -382 401 -427 448 -400 424 -477
500 -561 556 -122 81 -222 126 -360 161 -131 33 -126 32 -847 33 l-623 1 200
200 200 200 2200 0 2200 0 0 800 0 800 -2200 0 -2200 0 -48 43 c-26 23 -49 44
-52 47 -3 3 -57 50 -120 105 -63 55 -124 109 -135 120 -11 11 -54 50 -95 85
-41 36 -97 86 -125 111 -27 26 -66 60 -84 75 -19 16 -44 38 -56 49 -29 28
-190 171 -275 245 -14 12 -54 48 -90 80 -108 97 -121 108 -225 179 -343 234
-756 388 -1185 442 -127 15 -186 17 -682 18 l-428 1 0 400 0 400 -1400 0
-1400 0 0 -414z"/>
</g>
</svg>
